<?xml version="1.0" encoding="utf-8"?>
<!-- Generator: Adobe Illustrator 25.2.3, SVG Export Plug-In . SVG Version: 6.00 Build 0)  -->
<svg version="1.1" id="Layer_1" xmlns="http://www.w3.org/2000/svg" xmlns:xlink="http://www.w3.org/1999/xlink" x="0px" y="0px"
	 viewBox="0 0 3089 941" style="enable-background:new 0 0 3089 941;" xml:space="preserve">
<style type="text/css">
	.st0{fill:#FFFFFF;}
</style>
<polygon class="st0" points="54.2,199 103.22,0 480.59,0 448.41,175.51 340.67,181.64 210.97,850.57 0,904.7 162.46,190.83 "/>
<polygon class="st0" points="516.33,0 686.37,0 649.1,272.53 723.14,268.96 756.84,0 928.41,0 856.41,733.64 659.31,762.23 
	699.65,448.7 622.54,455.85 579.14,776.53 376.41,814.32 "/>
<polygon class="st0" points="963.65,0 1308.33,0 1303.22,151.51 1125.52,155.09 1118.88,252.11 1262.88,249.55 1258.8,414.49 
	1108.67,421.13 1102.54,528.36 1291.48,519.17 1286.37,698.91 896.24,730.06 "/>
<path class="st0" d="M1584.59,0h171.57l25.02,523.26l151.15,9.19l12.77,186.38c0,0-130.16-10.4-173.62-12.77
	c-43.49-2.36-174.13-6.13-174.13-6.13L1584.59,0z"/>
<path class="st0" d="M2271.9,0h-204.77l-82.98,721.77l197.23,23.36l3.45-78.13l135.19,18.38l22.21,84.64l200.68,35.23L2271.9,0z
	 M2193.14,477.73l7.02-212.86l61.28,216.77L2193.14,477.73z"/>
<path class="st0" d="M2987.31,525.3l-101.11-99.57l57.7-79.15L2859.46,0l-413.43,0.81l137.68,814.02L3089,941L2987.31,525.3z
	 M2653.22,180.23l72,3.83l26.43,119.11l-74.68-5.36L2653.22,180.23z M2743.61,630.23l-26.43-129.06l77.74,11.11l28.72,130.6
	L2743.61,630.23z"/>
</svg>
